<?xml version="1.0" standalone="no"?>
<!DOCTYPE svg PUBLIC "-//W3C//DTD SVG 20010904//EN"
 "http://www.w3.org/TR/2001/REC-SVG-20010904/DTD/svg10.dtd">
<svg version="1.0" xmlns="http://www.w3.org/2000/svg"
 width="512.000000pt" height="512.000000pt" viewBox="0 0 512.000000 512.000000"
 preserveAspectRatio="xMidYMid meet">

<g transform="translate(0.000000,512.000000) scale(0.100000,-0.100000)"
fill="#000000" stroke="none">
<path d="M0 2560 l0 -2560 1178 1 c647 1 1167 4 1155 6 -13 2 -32 16 -43 30
-18 23 -20 40 -20 159 l0 134 -85 0 c-97 0 -141 14 -173 55 -19 24 -22 40 -22
134 0 126 15 161 83 191 23 10 34 19 24 19 -32 2 -76 31 -92 61 -19 37 -21
213 -2 250 7 13 28 35 46 47 l34 23 479 0 c527 0 515 1 552 -60 22 -38 23
-218 1 -260 -16 -30 -59 -59 -92 -61 -10 -1 -3 -6 15 -12 18 -5 46 -25 62 -44
29 -33 30 -36 30 -141 0 -116 -8 -143 -53 -176 -23 -17 -46 -22 -128 -24 l-99
-4 0 -135 0 -135 -29 -29 -29 -29 1164 0 1164 0 0 2560 0 2560 -2560 0 -2560
0 0 -2560z m2798 1078 c112 -112 233 -237 269 -278 205 -238 239 -554 88 -827
-30 -54 -87 -117 -276 -308 l-239 -240 0 204 0 205 100 101 c108 111 117 130
79 179 -33 42 -83 36 -136 -16 l-43 -42 0 40 c0 36 7 46 86 124 47 47 92 98
101 114 27 52 -10 116 -67 116 -22 0 -43 -12 -75 -41 l-45 -42 0 97 c0 90 -2
99 -25 121 -15 16 -36 25 -55 25 -19 0 -40 -9 -55 -25 -24 -23 -25 -28 -25
-172 l0 -147 -38 37 c-20 20 -52 39 -69 43 -27 5 -37 1 -64 -25 -49 -49 -38
-77 76 -191 88 -88 95 -98 95 -135 l0 -39 -43 42 c-32 31 -51 42 -74 42 -40 0
-71 -27 -79 -68 -6 -30 -1 -38 95 -135 l101 -103 0 -155 0 -154 -239 240
c-189 191 -246 254 -276 308 -154 279 -117 594 98 838 41 46 162 171 269 277
175 173 197 192 228 192 31 0 53 -19 238 -202z"/>
</g>
</svg>
