<?xml version="1.0" standalone="no"?>
<!DOCTYPE svg PUBLIC "-//W3C//DTD SVG 20010904//EN"
 "http://www.w3.org/TR/2001/REC-SVG-20010904/DTD/svg10.dtd">
<svg version="1.0" xmlns="http://www.w3.org/2000/svg"
 width="512.000000pt" height="512.000000pt" viewBox="0 0 512.000000 512.000000"
 preserveAspectRatio="xMidYMid meet">

<g transform="translate(0.000000,512.000000) scale(0.100000,-0.100000)"
fill="#000000" stroke="none">
<path d="M2517 5106 c-205 -76 -234 -352 -50 -462 87 -52 162 -54 254 -8 79
39 139 136 139 224 0 89 -64 191 -144 232 -51 26 -148 33 -199 14z m129 -151
c41 -17 69 -71 59 -116 -9 -41 -58 -79 -104 -79 -111 0 -145 143 -46 194 37
20 47 20 91 1z"/>
<path d="M1679 4773 c-15 -2 -51 -19 -80 -36 -94 -56 -142 -167 -119 -273 45
-201 296 -271 436 -122 118 125 85 326 -66 403 -48 24 -123 37 -171 28z m124
-179 c34 -34 42 -73 23 -117 -28 -69 -115 -85 -169 -32 -29 30 -36 58 -25 102
19 72 119 99 171 47z"/>
<path d="M3380 4740 c-105 -13 -214 -63 -297 -135 -37 -31 -43 -42 -43 -75 0
-30 6 -43 26 -59 37 -29 54 -27 111 19 177 141 387 141 557 0 26 -22 57 -40
68 -40 27 0 78 53 78 81 0 30 -81 106 -157 146 -103 55 -229 78 -343 63z"/>
<path d="M3372 4422 c-101 -36 -148 -110 -102 -159 33 -36 56 -37 114 -4 58
34 80 37 112 18 85 -49 85 -49 115 -36 56 22 65 80 22 124 -64 64 -173 88
-261 57z"/>
<path d="M2552 4380 c-32 -30 -30 -82 4 -109 31 -24 43 -26 78 -10 34 16 47
57 31 96 -20 47 -75 58 -113 23z"/>
<path d="M809 4160 c-115 -18 -218 -67 -301 -143 -43 -39 -50 -81 -20 -115 34
-41 62 -37 136 17 116 86 222 112 346 87 75 -16 138 -47 193 -96 52 -45 81
-48 117 -12 42 43 39 67 -20 124 -109 105 -295 162 -451 138z"/>
<path d="M4253 4141 c-88 -23 -168 -101 -193 -191 -24 -84 2 -173 69 -240 110
-110 276 -105 375 12 36 42 66 118 66 168 0 47 -29 124 -61 163 -56 68 -174
109 -256 88z"/>
<path d="M2553 4085 c-29 -20 -37 -59 -19 -94 24 -46 67 -54 110 -20 72 57
-15 167 -91 114z"/>
<path d="M3144 4053 c-12 -2 -30 -13 -40 -25 -17 -17 -19 -41 -22 -179 l-3
-159 -39 0 c-22 0 -47 -8 -61 -19 -24 -19 -24 -20 -27 -270 l-3 -251 -398 0
c-388 0 -399 -1 -425 -21 l-26 -20 0 -470 0 -469 -352 2 -353 3 -3 152 c-2
150 -3 152 -29 172 -16 13 -41 21 -64 21 -38 0 -39 1 -39 38 0 178 -82 316
-224 378 l-66 28 0 237 c0 146 -4 248 -11 268 -19 53 -67 66 -113 30 l-26 -20
0 -260 c0 -200 -3 -259 -12 -259 -35 0 -137 -62 -181 -109 -69 -74 -90 -127
-95 -238 l-4 -93 -45 0 c-33 0 -50 -6 -68 -25 l-25 -24 0 -836 c0 -822 0 -835
20 -855 30 -30 83 -27 109 6 21 26 21 33 21 805 l0 779 350 0 350 0 0 -1110 0
-1110 -350 0 -350 0 0 149 c0 135 -2 151 -21 175 -26 33 -79 36 -109 6 -18
-18 -20 -33 -20 -175 l0 -155 -170 0 c-168 0 -171 0 -195 -25 -32 -31 -32 -69
0 -100 l24 -25 2509 0 c2437 0 2510 1 2533 19 32 26 32 86 0 112 -20 16 -41
19 -152 19 l-129 0 0 835 0 836 -25 24 -24 25 -401 0 -400 0 0 359 c0 347 -1
359 -21 385 -25 31 -75 35 -108 9 l-22 -18 1 -1227 0 -1228 -355 0 -355 0 0
1695 0 1695 355 0 356 0 -1 -302 c-2 -300 -1 -303 20 -320 27 -22 79 -23 106
-4 18 14 19 31 22 370 l3 356 -25 25 c-19 18 -36 25 -66 25 l-40 0 0 154 c0
149 -1 156 -24 183 l-24 28 -309 1 c-169 1 -318 0 -329 -3z m526 -258 l0 -105
-215 0 -215 0 0 105 0 105 215 0 215 0 0 -105z m-720 -2220 l0 -1425 -350 0
-350 0 0 1425 0 1425 350 0 350 0 0 -1425z m-1997 1234 c47 -13 102 -60 127
-109 10 -20 22 -68 25 -108 l8 -72 -217 0 -216 0 0 68 c0 82 24 138 74 178 63
50 125 64 199 43z m1147 -879 l0 -90 -179 0 c-165 0 -180 -2 -205 -21 l-26
-20 0 -734 0 -734 26 -20 c25 -19 40 -21 205 -21 l179 0 0 -70 0 -70 -350 0
-350 0 0 935 0 935 350 0 350 0 0 -90z m2560 -995 l0 -785 -350 0 -350 0 0
785 0 785 350 0 350 0 0 -785z m-2560 130 l0 -615 -130 0 -130 0 0 615 0 615
130 0 130 0 0 -615z"/>
<path d="M2428 2796 c-10 -7 -22 -25 -28 -40 -7 -18 -10 -406 -10 -1177 0
-1251 -2 -1211 54 -1225 14 -3 38 -3 52 0 56 14 54 -26 54 1225 0 771 -3 1159
-10 1177 -14 35 -38 53 -70 53 -14 0 -33 -5 -42 -13z"/>
<path d="M2708 2796 c-10 -7 -22 -25 -28 -40 -7 -18 -10 -406 -10 -1177 0
-1251 -2 -1211 54 -1225 14 -3 38 -3 52 0 56 14 54 -26 54 1225 0 771 -3 1159
-10 1177 -14 35 -38 53 -70 53 -14 0 -33 -5 -42 -13z"/>
<path d="M4096 1499 c-33 -26 -36 -79 -6 -109 19 -19 33 -20 209 -20 165 0
191 2 210 18 33 26 31 79 -3 109 -26 22 -33 23 -205 23 -165 0 -180 -2 -205
-21z"/>
<path d="M4120 1193 c-51 -19 -68 -85 -30 -123 19 -19 33 -20 209 -20 165 0
191 2 210 18 33 26 31 79 -3 109 -26 22 -33 23 -199 22 -95 0 -179 -3 -187 -6z"/>
<path d="M4120 873 c-51 -19 -68 -85 -30 -123 19 -19 33 -20 213 -20 182 0
195 1 212 20 28 31 24 79 -9 107 -26 22 -33 23 -199 22 -95 0 -179 -3 -187 -6z"/>
<path d="M4120 553 c-52 -20 -68 -85 -30 -123 19 -19 33 -20 213 -20 182 0
195 1 212 20 25 28 23 76 -4 103 -20 21 -31 22 -199 24 -97 1 -184 -1 -192 -4z"/>
<path d="M1686 4029 c-65 -51 0 -153 79 -123 8 4 23 20 31 36 13 25 13 35 3
59 -21 52 -68 63 -113 28z"/>
<path d="M826 3849 c-74 -18 -146 -78 -146 -121 0 -11 14 -33 30 -50 35 -34
60 -33 112 5 41 30 93 28 144 -6 31 -21 48 -26 68 -21 56 14 74 87 32 129 -56
56 -160 84 -240 64z"/>
<path d="M2545 3775 c-14 -13 -25 -36 -25 -50 0 -14 11 -37 25 -50 13 -14 36
-25 50 -25 14 0 37 11 50 25 14 13 25 36 25 50 0 14 -11 37 -25 50 -13 14 -36
25 -50 25 -14 0 -37 -11 -50 -25z"/>
<path d="M1686 3729 c-65 -51 0 -153 79 -123 8 4 23 20 31 36 13 25 13 35 3
59 -21 52 -68 63 -113 28z"/>
<path d="M2546 3479 c-34 -27 -35 -71 -1 -104 13 -14 36 -25 50 -25 14 0 37
11 50 25 14 13 25 36 25 50 0 33 -41 75 -73 75 -13 0 -36 -9 -51 -21z"/>
<path d="M4262 3450 c-30 -28 -30 -82 0 -110 47 -43 118 -10 118 55 0 41 -32
75 -70 75 -14 0 -36 -9 -48 -20z"/>
<path d="M1686 3429 c-65 -51 0 -153 79 -123 8 4 23 20 31 36 13 25 13 35 3
59 -21 52 -68 63 -113 28z"/>
<path d="M3270 3300 c-45 -45 -13 -130 50 -130 41 0 70 31 70 75 0 44 -29 75
-70 75 -17 0 -39 -9 -50 -20z"/>
<path d="M3542 3297 c-29 -31 -29 -77 1 -105 48 -46 117 -14 117 53 0 68 -73
100 -118 52z"/>
<path d="M4262 3150 c-30 -28 -30 -82 0 -110 47 -43 118 -10 118 55 0 41 -32
75 -70 75 -14 0 -36 -9 -48 -20z"/>
<path d="M1686 3129 c-65 -51 0 -153 79 -123 8 4 23 20 31 36 13 25 13 35 3
59 -21 52 -68 63 -113 28z"/>
<path d="M3270 2990 c-45 -45 -13 -130 50 -130 41 0 70 31 70 75 0 44 -29 75
-70 75 -17 0 -39 -9 -50 -20z"/>
<path d="M3542 2987 c-29 -31 -29 -77 1 -105 48 -46 117 -14 117 53 0 68 -73
100 -118 52z"/>
<path d="M4262 2850 c-30 -28 -30 -82 0 -110 47 -43 118 -10 118 55 0 41 -32
75 -70 75 -14 0 -36 -9 -48 -20z"/>
<path d="M1686 2829 c-65 -51 0 -153 79 -123 8 4 23 20 31 36 13 25 13 35 3
59 -21 52 -68 63 -113 28z"/>
<path d="M3270 2680 c-45 -45 -13 -130 50 -130 41 0 70 31 70 75 0 44 -29 75
-70 75 -17 0 -39 -9 -50 -20z"/>
<path d="M3542 2677 c-29 -31 -29 -77 1 -105 48 -46 117 -14 117 53 0 68 -73
100 -118 52z"/>
<path d="M4262 2550 c-30 -28 -30 -82 0 -110 47 -43 118 -10 118 55 0 41 -32
75 -70 75 -14 0 -36 -9 -48 -20z"/>
<path d="M1686 2529 c-65 -51 0 -153 79 -123 8 4 23 20 31 36 13 25 13 35 3
59 -21 52 -68 63 -113 28z"/>
<path d="M3270 2370 c-45 -45 -13 -130 50 -130 41 0 70 31 70 75 0 44 -29 75
-70 75 -17 0 -39 -9 -50 -20z"/>
<path d="M3542 2367 c-29 -31 -29 -77 1 -105 48 -46 117 -14 117 53 0 68 -73
100 -118 52z"/>
<path d="M4262 2250 c-30 -28 -30 -82 0 -110 47 -43 118 -10 118 55 0 41 -32
75 -70 75 -14 0 -36 -9 -48 -20z"/>
<path d="M686 2139 c-33 -26 -36 -79 -6 -109 19 -19 33 -20 210 -20 177 0 191
1 210 20 33 33 30 75 -6 108 -24 21 -33 22 -203 22 -165 0 -180 -2 -205 -21z"/>
<path d="M3270 2060 c-45 -45 -13 -130 50 -130 41 0 70 31 70 75 0 44 -29 75
-70 75 -17 0 -39 -9 -50 -20z"/>
<path d="M3542 2057 c-29 -31 -29 -77 1 -105 48 -46 117 -14 117 53 0 68 -73
100 -118 52z"/>
<path d="M686 1819 c-33 -26 -36 -79 -6 -109 19 -19 33 -20 210 -20 177 0 191
1 210 20 33 33 30 75 -6 108 -24 21 -33 22 -203 22 -165 0 -180 -2 -205 -21z"/>
<path d="M3270 1750 c-45 -45 -13 -130 50 -130 41 0 70 31 70 75 0 44 -29 75
-70 75 -17 0 -39 -9 -50 -20z"/>
<path d="M3542 1747 c-29 -31 -29 -77 1 -105 48 -46 117 -14 117 53 0 68 -73
100 -118 52z"/>
<path d="M686 1499 c-33 -26 -36 -79 -6 -109 19 -19 33 -20 209 -20 165 0 191
2 210 18 33 26 31 79 -3 109 -26 22 -33 23 -205 23 -165 0 -180 -2 -205 -21z"/>
<path d="M3270 1440 c-45 -45 -13 -130 50 -130 41 0 70 31 70 75 0 44 -29 75
-70 75 -17 0 -39 -9 -50 -20z"/>
<path d="M3542 1437 c-29 -31 -29 -77 1 -105 48 -46 117 -14 117 53 0 68 -73
100 -118 52z"/>
<path d="M710 1193 c-51 -19 -68 -85 -30 -123 19 -19 33 -20 209 -20 165 0
191 2 210 18 33 26 31 79 -3 109 -26 22 -33 23 -199 22 -95 0 -179 -3 -187 -6z"/>
<path d="M3270 1130 c-45 -45 -13 -130 50 -130 41 0 70 31 70 75 0 44 -29 75
-70 75 -17 0 -39 -9 -50 -20z"/>
<path d="M3542 1127 c-29 -31 -29 -77 1 -105 48 -46 117 -14 117 53 0 68 -73
100 -118 52z"/>
<path d="M710 873 c-52 -20 -68 -85 -30 -123 19 -19 33 -20 209 -20 165 0 191
2 210 18 30 24 31 76 2 105 -20 21 -31 22 -199 24 -97 1 -184 -1 -192 -4z"/>
<path d="M3270 820 c-45 -45 -13 -130 50 -130 41 0 70 31 70 75 0 44 -29 75
-70 75 -17 0 -39 -9 -50 -20z"/>
<path d="M3542 817 c-29 -31 -29 -77 1 -105 48 -46 117 -14 117 53 0 68 -73
100 -118 52z"/>
<path d="M710 553 c-52 -20 -68 -85 -30 -123 19 -19 33 -20 213 -20 178 0 195
2 211 19 25 27 24 78 -3 104 -20 21 -31 22 -199 24 -97 1 -184 -1 -192 -4z"/>
<path d="M3270 510 c-45 -45 -13 -130 50 -130 41 0 70 31 70 75 0 44 -29 75
-70 75 -17 0 -39 -9 -50 -20z"/>
<path d="M3542 507 c-29 -31 -29 -77 1 -105 48 -46 117 -14 117 53 0 68 -73
100 -118 52z"/>
</g>
</svg>
